<svg xmlns="http://www.w3.org/2000/svg" xmlns:xlink="http://www.w3.org/1999/xlink" fill="none" version="1.1" width="130" height="34" viewBox="0 0 130 34"><defs><clipPath id="master_svg0_1_1"><rect x="0" y="0" width="130" height="34" rx="6"/></clipPath><clipPath id="master_svg1_1_45"><rect x="20" y="9" width="16" height="16" rx="0"/></clipPath></defs><g clip-path="url(#master_svg0_1_1)"><rect x="0" y="0" width="130" height="34" rx="6" fill="#1F883D" fill-opacity="1"/><g clip-path="url(#master_svg1_1_45)"><g><path d="M33.323303906250004,9.33789662421875C33.37820390625,9.34586262421875,33.42470390625,9.35611052421875,33.46290390625,9.36743582421875C33.65290390625,9.42379632421875,33.80800390625,9.56178432421875,33.88610390625,9.74395832421875C34.21920390625,10.52111732421875,34.29860390625,11.378257324218751,34.12150390625,12.19527732421875C34.12150390625,12.19527732421875,34.08000390625,12.36538732421875,34.08000390625,12.36538732421875C34.08000390625,12.36538732421875,34.186503906249996,12.50595732421875,34.186503906249996,12.50595732421875C34.67480390625,13.18158732421875,34.95750390625,13.987577324218751,34.99560390625,14.82591732421875C34.99560390625,14.82591732421875,35.00000390625,15.01991732421875,35.00000390625,15.01991732421875C35.00000390625,18.03653732421875,33.68870390625,19.55450732421875,31.32540390625,20.13850732421875C31.32540390625,20.13850732421875,31.13600390625,20.182107324218748,31.13600390625,20.182107324218748C31.13600390625,20.182107324218748,31.16790390625,20.263207324218747,31.16790390625,20.263207324218747C31.288003906249997,20.596707324218748,31.34600390625,20.948707324218752,31.341103906249998,21.269207324218748C31.341103906249998,21.269207324218748,31.333303906250002,21.42660732421875,31.333303906250002,21.42660732421875C31.333303906250002,21.42660732421875,31.333303906250002,24.00660732421875,31.333303906250002,24.00660732421875C31.333303906250002,24.37480732421875,31.034803906249998,24.67330732421875,30.66660390625,24.67330732421875C30.32477390625,24.67330732421875,30.042973906249998,24.41590732421875,30.00450390625,24.08430732421875C30.00450390625,24.08430732421875,29.99997390625,24.00660732421875,29.99997390625,24.00660732421875C29.99997390625,24.00660732421875,30.00203390625,21.374307324218748,30.00203390625,21.374307324218748C30.01963390625,21.15070732421875,29.98943390625,20.92600732421875,29.91343390625,20.71500732421875C29.85263390625,20.54620732421875,29.76370390625,20.38930732421875,29.65057390625,20.25090732421875C29.65057390625,20.25090732421875,29.56130390625,20.15060732421875,29.56130390625,20.15060732421875C29.17563390625,19.75280732421875,29.41543390625,19.08540732421875,29.96617390625,19.02407732421875C32.478703906250004,18.74400732421875,33.66660390625,17.745077324218748,33.66660390625,15.020057324218751C33.66650390625,14.26033732421875,33.37430390625,13.52978732421875,32.85050390625,12.97959732421875C32.67460390625,12.79481732421875,32.61950390625,12.52582732421875,32.70880390625,12.28679732421875C32.89640390625,11.78398732421875,32.92950390625,11.24039732421875,32.80970390625,10.72435732421875C32.80970390625,10.72435732421875,32.800603906250004,10.69138732421875,32.800603906250004,10.69138732421875C32.800603906250004,10.69138732421875,32.73780390625,10.70701732421875,32.73780390625,10.70701732421875C32.73780390625,10.70701732421875,32.64780390625,10.73145732421875,32.64780390625,10.73145732421875C32.21820390625,10.85511732421875,31.68280390625,11.11469732421875,31.037803906249998,11.54700732421875C30.877603906250002,11.65446732421875,30.67860390625,11.68718732421875,30.49230390625,11.63669732421875C29.07850390625,11.25353732421875,27.58817390625,11.25353732421875,26.17438390625,11.63669732421875C25.98811390625,11.68718732421875,25.78910390625,11.65446732421875,25.62879390625,11.54700732421875C25.04249390625,11.15399732421875,24.54674390625,10.90374732421875,24.13870390625,10.76857732421875C24.13870390625,10.76857732421875,23.97280390625,10.71855732421875,23.97280390625,10.71855732421875C23.97280390625,10.71855732421875,23.86533390625,10.69138732421875,23.86533390625,10.69138732421875C23.86533390625,10.69138732421875,23.85698390625,10.72433732421875,23.85698390625,10.72433732421875C23.74913390625,11.18876732421875,23.76516390625,11.67551732421875,23.90625390625,12.13480732421875C23.90625390625,12.13480732421875,23.95791390625,12.28681732421875,23.95791390625,12.28681732421875C24.04712390625,12.52584732421875,23.99208390625,12.79481732421875,23.81616390625,12.97959732421875C23.28844390625,13.53389732421875,22.99590390625,14.27105732421875,22.99994390625,15.039917324218749C22.99994390625,17.73940732421875,24.17900390625,18.730807324218752,26.70883390625,19.04500732421875C27.22863390625,19.10960732421875,27.46523390625,19.71330732421875,27.15617390625,20.112107324218748C27.15617390625,20.112107324218748,27.10568390625,20.17030732421875,27.10568390625,20.17030732421875C26.95149390625,20.32950732421875,26.83252390625,20.51970732421875,26.75658390625,20.728107324218747C26.69583390625,20.89480732421875,26.66372390625,21.07030732421875,26.66211390625,21.27100732421875C26.66211390625,21.27100732421875,26.66666390625,21.42660732421875,26.66666390625,21.42660732421875C26.66666390625,21.42660732421875,26.66666390625,24.00660732421875,26.66666390625,24.00660732421875C26.66666390625,24.37480732421875,26.36818390625,24.67330732421875,25.99999390625,24.67330732421875C25.65810390625,24.67330732421875,25.37632390625,24.41590732421875,25.33781390625,24.08430732421875C25.33781390625,24.08430732421875,25.33333390625,24.00660732421875,25.33333390625,24.00660732421875C25.33333390625,24.00660732421875,25.33336390625,22.84770732421875,25.33336390625,22.84770732421875C23.91448390625,23.07910732421875,22.99307390625,22.643907324218752,22.14537390625,21.64760732421875C22.14537390625,21.64760732421875,21.96463390625,21.42590732421875,21.96463390625,21.42590732421875C21.96463390625,21.42590732421875,21.74026390625,21.14320732421875,21.74026390625,21.14320732421875C21.50566390625,20.85330732421875,21.35716390625,20.71950732421875,21.21784390625,20.66770732421875C21.21784390625,20.66770732421875,21.171637906249998,20.65330732421875,21.171637906249998,20.65330732421875C20.81444090625,20.56410732421875,20.59726720625,20.20210732421875,20.68656660625,19.844907324218752C20.77586590625,19.48770732421875,21.13782190625,19.27053732421875,21.49501690625,19.35990732421875C21.96251390625,19.47670732421875,22.28969390625,19.727907324218748,22.67119390625,20.17700732421875C22.67119390625,20.17700732421875,22.80767390625,20.34300732421875,22.80767390625,20.34300732421875C22.80767390625,20.34300732421875,23.07705390625,20.68240732421875,23.07705390625,20.68240732421875C23.709813906249998,21.465907324218747,24.23540390625,21.73550732421875,25.33496390625,21.49290732421875C25.33496390625,21.49290732421875,25.33497390625,21.47330732421875,25.33497390625,21.47330732421875C25.31037390625,21.12360732421875,25.34913390625,20.77290732421875,25.44887390625,20.437807324218753C25.44887390625,20.437807324218753,25.503813906250002,20.271707324218752,25.503813906250002,20.271707324218752C25.503813906250002,20.271707324218752,25.53466390625,20.192707324218752,25.53466390625,20.192707324218752C25.53466390625,20.192707324218752,25.49744390625,20.18460732421875,25.49744390625,20.18460732421875C23.08140390625,19.61890732421875,21.72759390625,18.16900732421875,21.66863390625,15.24507732421875C21.66863390625,15.24507732421875,21.66661390625,15.043417324218751,21.66661390625,15.043417324218751C21.66181090625,14.129257324218749,21.94871390625,13.24281732421875,22.47763390625,12.50939732421875C22.47763390625,12.50939732421875,22.58599390625,12.36471732421875,22.58599390625,12.36471732421875C22.58599390625,12.36471732421875,22.54513390625,12.19524732421875,22.54513390625,12.19524732421875C22.38167390625,11.44105732421875,22.43678390625,10.65271732421875,22.708213906250002,9.92465432421875C22.708213906250002,9.92465432421875,22.780573906249998,9.74394932421875,22.780573906249998,9.74394932421875C22.858653906249998,9.56178032421875,23.01373390625,9.42379632421875,23.20375390625,9.36743582421875C23.24193390625,9.35611052421875,23.28849390625,9.34586262421875,23.34337390625,9.33789662421875C23.95117390625,9.24967132421875,24.833693906249998,9.47979632421875,26.00960390625,10.20642032421875C26.00960390625,10.20642032421875,26.11866390625,10.27472032421875,26.11866390625,10.27472032421875C26.11866390625,10.27472032421875,26.40860390625,10.21118732421875,26.40860390625,10.21118732421875C27.67850390625,9.95092332421875,28.988173906249997,9.95092332421875,30.25803390625,10.21118732421875C30.25803390625,10.21118732421875,30.54730390625,10.27472032421875,30.54730390625,10.27472032421875C30.54730390625,10.27472032421875,30.65703390625,10.20642032421875,30.65703390625,10.20642032421875C31.83300390625,9.47979632421875,32.71550390625,9.24967132421875,33.323303906250004,9.33789662421875C33.323303906250004,9.33789662421875,33.323303906250004,9.33789662421875,33.323303906250004,9.33789662421875Z" fill="#FFFFFF" fill-opacity="1"/></g></g><g><path d="M56.096000000000004,18.094Q56.544,18.695999999999998,57.188,19.676000000000002Q57.832,20.656,58.266,21.398L57.244,22.266Q57.034,21.817999999999998,56.572,21.061999999999998L55.592,21.482Q54.682,21.86,53.842,22.224Q53.184,22.503999999999998,52.498,22.854L51.784,21.664Q52.092,21.482,52.183,21.286Q52.274,21.09,52.274,20.810000000000002L52.274,11.304L57.552,11.304L57.552,17.884L53.534,17.884L53.534,20.894L55.83,19.9Q55.396,19.228,55.046,18.724L56.096000000000004,18.094ZM58.49,11.542L63.348,11.542L63.348,19.746000000000002Q63.348,20.39,63.201,20.733Q63.054,21.076,62.704,21.23Q62.354,21.384,61.682,21.439999999999998L61.038,21.496000000000002L60.618,20.054000000000002L61.066,19.997999999999998Q61.542,19.942,61.731,19.865000000000002Q61.92,19.788,61.969,19.662Q62.018,19.536,62.018,19.214L62.018,12.998000000000001L59.806,12.998000000000001L59.806,23.302L58.49,23.302L58.49,11.542ZM56.278,14.006L56.278,12.536L53.534,12.536L53.534,14.006L56.278,14.006ZM53.534,15.196L53.534,16.652L56.278,16.652L56.278,15.196L53.534,15.196ZM66.526,19.676000000000002Q67.674,19.003999999999998,68.486,18.387999999999998Q69.298,17.772,69.928,17.058L69.088,17.1Q67.884,17.183999999999997,67.408,17.240000000000002L67.072,15.924Q67.29599999999999,15.854,67.429,15.756Q67.562,15.658,67.702,15.518Q67.926,15.266,68.269,14.754999999999999Q68.612,14.244,68.92,13.712L66.778,13.712L66.778,12.41L69.9,12.41Q69.732,11.751999999999999,69.52199999999999,11.08L70.908,10.884Q71.03399999999999,11.262,71.37,12.41L73.96000000000001,12.41L73.96000000000001,13.712L70.418,13.712Q70.11,14.314,69.725,14.881Q69.34,15.448,69.04599999999999,15.742L70.992,15.644Q71.468,14.873999999999999,71.874,14.062000000000001L72.96600000000001,14.65Q71.916,16.666,70.565,18.128999999999998Q69.214,19.592,67.24,20.796L66.526,19.676000000000002ZM77.026,11.052L78.342,11.136L78.342,21.706Q78.342,22.336,78.167,22.686Q77.992,23.036,77.593,23.211Q77.194,23.386,76.48,23.456L75.486,23.554L75.038,22.112000000000002L76.074,22.028Q76.46600000000001,22,76.662,21.936999999999998Q76.858,21.874000000000002,76.94200000000001,21.706Q77.026,21.538,77.026,21.201999999999998L77.026,11.052ZM74.422,12.283999999999999L75.738,12.34L75.738,20.488L74.422,20.488L74.422,12.283999999999999ZM73.764,17.618000000000002Q72.882,19.088,71.86,20.194000000000003Q72.924,21.076,74.05799999999999,22.14L73.288,23.428Q72.896,23.022,72.175,22.343Q71.45400000000001,21.664,70.866,21.16Q69.424,22.433999999999997,67.072,23.68L66.246,22.462Q68.57,21.342,70.089,20.067999999999998Q71.608,18.794,72.756,16.904L73.764,17.618000000000002ZM83.186,15.042L87.792,15.042Q87.792,15.588,87.771,16.491Q87.75,17.394,87.708,18.192Q87.68,18.822,87.533,19.172Q87.386,19.522,87.02199999999999,19.683Q86.658,19.844,85.98599999999999,19.9L85.244,19.956L84.866,18.71L85.622,18.654Q86.02799999999999,18.625999999999998,86.189,18.57Q86.35,18.514,86.399,18.374000000000002Q86.44800000000001,18.234,86.476,17.869999999999997L86.49000000000001,17.352Q86.532,16.736,86.532,16.302L83.956,16.302L83.956,20.768Q83.956,21.244,84.005,21.426000000000002Q84.054,21.608,84.23599999999999,21.678Q84.418,21.747999999999998,84.866,21.79Q85.286,21.832,85.72,21.832Q86.084,21.832,86.462,21.79Q86.826,21.747999999999998,87.00800000000001,21.671Q87.19,21.594,87.267,21.426000000000002Q87.344,21.258,87.414,20.894Q87.49799999999999,20.488,87.53999999999999,19.886L88.87,20.305999999999997Q88.828,20.95,88.702,21.552Q88.576,22.154,88.38,22.462Q88.184,22.77,87.785,22.91Q87.386,23.05,86.616,23.092Q86.26599999999999,23.12,85.538,23.12Q84.824,23.12,84.46000000000001,23.092Q83.75999999999999,23.05,83.375,22.881999999999998Q82.99,22.714,82.815,22.314999999999998Q82.64,21.916,82.64,21.16L82.64,15.518Q82.262,15.826,81.898,16.092L81.072,15.014Q82.262,14.16,83.396,12.879Q84.53,11.597999999999999,85.076,10.436L86.322,11.065999999999999Q86.28,11.15,86.042,11.597999999999999Q86.78399999999999,12.172,87.64500000000001,12.928Q88.506,13.684000000000001,89.08,14.286L88.29599999999999,15.42Q87.316,14.328,85.37,12.661999999999999Q84.432,13.95,83.186,15.042ZM91.894,10.856L93.182,10.911999999999999L93.182,21.594Q93.182,22.252000000000002,93.035,22.581Q92.888,22.91,92.503,23.064Q92.118,23.218,91.306,23.302L90.452,23.386L89.99000000000001,21.93L90.928,21.846Q91.50200000000001,21.79,91.69800000000001,21.636Q91.894,21.482,91.894,21.006L91.894,10.856ZM89.304,11.934000000000001L90.62,11.99L90.62,19.97L89.304,19.97L89.304,11.934000000000001ZM100.896,15.546L103.304,15.546L103.304,14.719999999999999L100.44800000000001,14.719999999999999L100.44800000000001,13.642L103.304,13.642L103.304,12.815999999999999L100.91,12.815999999999999L100.91,11.751999999999999L103.304,11.751999999999999L103.304,10.744L104.564,10.8L104.564,11.751999999999999L107.574,11.751999999999999L107.574,13.642L108.512,13.642L108.512,14.719999999999999L107.574,14.719999999999999L107.574,16.61L104.564,16.61L104.564,17.45L107.7,17.45L107.7,18.514L104.564,18.514L104.564,19.326L108.20400000000001,19.326L108.20400000000001,20.404L104.564,20.404L104.564,21.509999999999998L103.304,21.509999999999998L103.304,20.404L100.21000000000001,20.404L100.21000000000001,19.326L103.304,19.326L103.304,18.514L100.84,18.514L100.84,17.45L103.304,17.45L103.304,16.61L100.896,16.61L100.896,15.546ZM105.852,21.804000000000002Q107.28,21.804000000000002,108.68,21.762L108.47,22.966Q107.098,23.008,105.726,23.008Q104.368,23.008,102.99600000000001,22.966Q101.53999999999999,22.924,100.469,22.595Q99.398,22.266,98.586,21.482Q97.872,22.518,96.892,23.47L95.95400000000001,22.433999999999997Q97.032,21.454,97.718,20.404Q97.04599999999999,19.311999999999998,96.57,17.618000000000002L97.536,17.253999999999998Q97.914,18.458,98.334,19.284Q98.866,18.136,99.118,16.666L96.668,16.666L96.668,15.504L98.866,12.844000000000001L96.626,12.844000000000001L96.626,11.668L100.35,11.668L100.35,12.858L98.152,15.49L100.364,15.49L100.364,16.624000000000002Q100.168,17.828,99.888,18.752000000000002Q99.608,19.676000000000002,99.174,20.502000000000002Q99.832,21.216,100.714,21.468Q101.596,21.72,103.024,21.762Q104.438,21.804000000000002,105.852,21.804000000000002ZM106.37,12.815999999999999L104.564,12.815999999999999L104.564,13.642L106.37,13.642L106.37,12.815999999999999ZM104.564,15.546L106.37,15.546L106.37,14.719999999999999L104.564,14.719999999999999L104.564,15.546Z" fill="#FFFFFF" fill-opacity="1"/></g></g></svg>